<svg xmlns="http://www.w3.org/2000/svg" width="207" height="196" viewBox="0 0 207 196"><defs><mask id="wx9ub" width="2" height="2" x="-1" y="-1"><path fill="#fff" d="M65 65h73v60H65z"/><path d="M65 95c0-16.569 16.342-30 36.5-30S138 78.431 138 95c0 16.569-16.342 30-36.5 30S65 111.569 65 95z"/></mask><filter id="wx9ua" width="259" height="247" x="-27" y="-27" filterUnits="userSpaceOnUse"><feOffset dx="2" dy="3" in="SourceGraphic" result="FeOffset1023Out"/><feGaussianBlur in="FeOffset1023Out" result="FeGaussianBlur1024Out" stdDeviation="32.8 32.8"/></filter><clipPath id="wx9uc"><path fill="#fff" d="M65 95c0-16.569 16.342-30 36.5-30S138 78.431 138 95c0 16.569-16.342 30-36.5 30S65 111.569 65 95z"/></clipPath><clipPath id="wx9ud"><path fill="#fff" d="M87 90v-6h26a3 3 0 0 1 0 6z"/></clipPath><clipPath id="wx9ue"><path fill="#fff" d="M87 98v-6h14a3 3 0 0 1 0 6z"/></clipPath><clipPath id="wx9uf"><path fill="#fff" d="M87 106v-6h26a3 3 0 0 1 0 6z"/></clipPath></defs><g><g><g filter="url(#wx9ua)"><path fill="none" d="M65 95c0-16.569 16.342-30 36.5-30S138 78.431 138 95c0 16.569-16.342 30-36.5 30S65 111.569 65 95z" mask="url(&quot;#wx9ub&quot;)"/><path fill="#96cb9b" fill-opacity=".5" d="M65 95c0-16.569 16.342-30 36.5-30S138 78.431 138 95c0 16.569-16.342 30-36.5 30S65 111.569 65 95z"/></g><path fill="#81c988" d="M65 95c0-16.569 16.342-30 36.5-30S138 78.431 138 95c0 16.569-16.342 30-36.5 30S65 111.569 65 95z"/><path fill="none" stroke="#fff" stroke-miterlimit="20" stroke-width="2" d="M65 95c0-16.569 16.342-30 36.5-30S138 78.431 138 95c0 16.569-16.342 30-36.5 30S65 111.569 65 95z" clip-path="url(&quot;#wx9uc&quot;)"/></g><g><path fill="#fff" d="M87 90v-6h26a3 3 0 0 1 0 6z"/><path fill="none" stroke="#cbcbcb" stroke-miterlimit="20" stroke-width="2" d="M87 90v0-6 0h26a3 3 0 0 1 3 3v0a3 3 0 0 1-3 3z" clip-path="url(&quot;#wx9ud&quot;)"/></g><g><path fill="#fff" d="M87 98v-6h14a3 3 0 0 1 0 6z"/><path fill="none" stroke="#cbcbcb" stroke-miterlimit="20" stroke-width="2" d="M87 98v0-6 0h14a3 3 0 0 1 3 3v0a3 3 0 0 1-3 3z" clip-path="url(&quot;#wx9ue&quot;)"/></g><g><path fill="#fff" d="M87 106v-6h26a3 3 0 0 1 0 6z"/><path fill="none" stroke="#cbcbcb" stroke-miterlimit="20" stroke-width="2" d="M87 106v0-6 0h26a3 3 0 0 1 3 3v0a3 3 0 0 1-3 3z" clip-path="url(&quot;#wx9uf&quot;)"/></g></g></svg>