<svg xmlns="http://www.w3.org/2000/svg" 
id='menuBall'
width="60" height="60" viewBox="0 0 30 30"><defs><linearGradient id="l5t9a" x1="12.66" x2="15" y1="3.97" y2="30" gradientUnits="userSpaceOnUse"><stop offset="0" stop-color="#fff" stop-opacity=".25"/><stop offset=".37" stop-color="#d8d8d8" stop-opacity="0"/><stop offset="1" stop-color="#c5c5c5" stop-opacity="0"/></linearGradient><clipPath id="l5t9b"><path fill="#fff" d="M0 15C0 6.716 6.716 0 15 0c8.284 0 15 6.716 15 15 0 8.284-6.716 15-15 15-8.284 0-15-6.716-15-15z"/></clipPath></defs><g><g><path fill="url(#l5t9a)" d="M0 15C0 6.716 6.716 0 15 0c8.284 0 15 6.716 15 15 0 8.284-6.716 15-15 15-8.284 0-15-6.716-15-15z"/><path fill="none" stroke="#707070" stroke-miterlimit="20" stroke-width="2" d="M0 15C0 6.716 6.716 0 15 0c8.284 0 15 6.716 15 15 0 8.284-6.716 15-15 15-8.284 0-15-6.716-15-15z" clip-path="url(&quot;#l5t9b&quot;)"/></g><g><path fill="#fff" d="M7 13a1 1 0 0 1-1-1v-1a1 1 0 0 1 1-1h16a1 1 0 0 1 1 1v1a1 1 0 0 1-1 1z"/></g><g><path fill="#fff" d="M7 17a1 1 0 0 1-1-1v-1a1 1 0 0 1 1-1h16a1 1 0 0 1 1 1v1a1 1 0 0 1-1 1z"/></g><g><path fill="#fff" d="M7 21a1 1 0 0 1-1-1v-1a1 1 0 0 1 1-1h16a1 1 0 0 1 1 1v1a1 1 0 0 1-1 1z"/></g></g></svg>